<svg xmlns="http://www.w3.org/2000/svg" width="1400" height="1000" viewBox="0 0 1400 1000">
  <rect width="1400" height="1000" fill="#edf1f4"/>
  <text x="700" y="85" text-anchor="middle" font-family="DejaVu Sans" font-size="44" font-weight="700" fill="#1b2b38">Ключевая разметка</text>
  <rect x="150" y="170" width="1100" height="180" rx="28" fill="#4e5861"/>
  <line x1="240" y1="260" x2="1160" y2="260" stroke="#ffffff" stroke-width="16"/>
  <text x="700" y="320" text-anchor="middle" font-family="DejaVu Sans" font-size="28" fill="#ffffff">1.1 Сплошная: пересекать нельзя</text>
  <rect x="150" y="410" width="1100" height="180" rx="28" fill="#4e5861"/>
  <line x1="220" y1="500" x2="310" y2="500" stroke="#ffffff" stroke-width="16"/>
  <line x1="390" y1="500" x2="480" y2="500" stroke="#ffffff" stroke-width="16"/>
  <line x1="560" y1="500" x2="650" y2="500" stroke="#ffffff" stroke-width="16"/>
  <line x1="730" y1="500" x2="820" y2="500" stroke="#ffffff" stroke-width="16"/>
  <line x1="900" y1="500" x2="990" y2="500" stroke="#ffffff" stroke-width="16"/>
  <text x="700" y="560" text-anchor="middle" font-family="DejaVu Sans" font-size="28" fill="#ffffff">1.5 Прерывистая: перестроение разрешено</text>
  <rect x="150" y="650" width="1100" height="180" rx="28" fill="#4e5861"/>
  <line x1="220" y1="740" x2="390" y2="740" stroke="#ffffff" stroke-width="16"/>
  <line x1="460" y1="740" x2="630" y2="740" stroke="#ffffff" stroke-width="16"/>
  <line x1="700" y1="740" x2="870" y2="740" stroke="#ffffff" stroke-width="16"/>
  <line x1="940" y1="740" x2="1110" y2="740" stroke="#ffffff" stroke-width="16"/>
  <text x="700" y="800" text-anchor="middle" font-family="DejaVu Sans" font-size="28" fill="#ffffff">1.6 Длинные штрихи: скоро будет сплошная</text>
</svg>
